<svg id="OBJECTS" xmlns="http://www.w3.org/2000/svg" viewBox="0 0 137.31 148.59"><defs><style>.cls-1{fill:#73ccdc;}.cls-2{fill:#fff;}</style></defs><circle class="cls-1" cx="68.65" cy="74.29" r="59.62"/><path class="cls-2" d="M82.63,109.1H54.68A22.52,22.52,0,0,1,32.19,86.61V62a22.53,22.53,0,0,1,22.49-22.5H82.63A22.53,22.53,0,0,1,105.12,62V86.61A22.52,22.52,0,0,1,82.63,109.1ZM54.68,44.48A17.51,17.51,0,0,0,37.19,62V86.61A17.51,17.51,0,0,0,54.68,104.1H82.63a17.51,17.51,0,0,0,17.49-17.49V62a17.52,17.52,0,0,0-17.49-17.5Zm14,49.84a20,20,0,1,1,20-20A20.05,20.05,0,0,1,68.65,94.32Zm0-35a15,15,0,1,0,15,15A15,15,0,0,0,68.65,59.27Zm19.72-8.54a4.16,4.16,0,1,0,4.16,4.16A4.15,4.15,0,0,0,88.37,50.73Z"/></svg>