<?xml version="1.0" encoding="utf-8"?>
<!-- Generator: Adobe Illustrator 25.2.3, SVG Export Plug-In . SVG Version: 6.00 Build 0)  -->
<svg version="1.1" id="Layer_1" xmlns="http://www.w3.org/2000/svg" xmlns:xlink="http://www.w3.org/1999/xlink" x="0px" y="0px"
	 viewBox="0 0 476.7 478.8" style="enable-background:new 0 0 476.7 478.8;" xml:space="preserve">
<style type="text/css">
	.st0{fill:#FFFFFF;}
	.st1{fill:url(#SVGID_1_);}
</style>
<g>
	<path class="st0" d="M355.4,322c-4.9,13.8-29.2,27.2-40,28.2s-21.1,4.9-71.2-14.8c-60.3-23.8-98.3-85.5-101.3-89.5
		c-3-4-24.2-32.1-24.2-61.3c0-29.2,15.3-43.5,20.8-49.5c5.4-5.9,11.9-7.4,15.8-7.4s7.9,0,11.4,0.1c4.2,0.2,8.9,0.4,13.4,10.2
		c5.3,11.7,16.8,41.1,18.3,44c1.5,3,2.5,6.4,0.5,10.4c-2,4-3,6.4-5.9,9.9c-3,3.5-6.2,7.7-8.9,10.4c-3,3-6.1,6.2-2.6,12.1
		c3.5,5.9,15.4,25.3,33,41.1c22.7,20.2,41.8,26.5,47.7,29.4c5.9,3,9.4,2.5,12.8-1.5s14.8-17.3,18.8-23.2c4-5.9,7.9-5,13.3-3
		c5.4,2,34.6,16.3,40.5,19.3c5.9,3,9.9,4.4,11.4,6.9C360.4,296.3,360.4,308.2,355.4,322z"/>
	
		<linearGradient id="SVGID_1_" gradientUnits="userSpaceOnUse" x1="-25.019" y1="872.6019" x2="-25.019" y2="312.8482" gradientTransform="matrix(0.8515 0 0 0.8553 259.6294 -267.5918)">
		<stop  offset="0" style="stop-color:#F9F9F9"/>
		<stop  offset="1" style="stop-color:#FFFFFF"/>
	</linearGradient>
	<path class="st1" d="M476.6,231.9c-1.4-61.3-25.9-118.8-69.4-162.4C362.4,24.7,302.8,0,239.3,0C119.3,0,19.7,89.7,4.1,205.5
		c-1.4,10.4-2.1,21-2.1,31.7h0c0,41.8,10.9,82.6,31.7,118.6l-0.6,2.4L0,478.8l0.6-0.2l125.2-32.8c34.7,18.9,73.7,28.9,113.4,28.9
		h0.1c130.8,0,237.3-106.4,237.3-237.2C476.7,235.6,476.6,233.8,476.6,231.9z M239.3,434.6L239.3,434.6c-35.5,0-70.2-9.5-100.5-27.5
		l-7.2-4.3L57,422.4l19.9-72.8l-4.7-7.5C52.5,310.8,42,274.5,42.1,237.2c0-108.7,88.5-197.2,197.3-197.2
		c52.7,0,102.2,20.6,139.5,57.8c37.2,37.3,57.7,86.8,57.7,139.5C436.5,346.1,348,434.6,239.3,434.6z"/>
</g>
</svg>
