<svg id="Layer_1" data-name="Layer 1" xmlns="http://www.w3.org/2000/svg" viewBox="0 0 320.18 224.08"><defs><style>.cls-1{fill:#fff;}</style></defs><title>youtube</title><path class="cls-1" d="M168,10.08c37.93,1.73,75.92,2.17,113.85,4a87,87,0,0,1,15.3,2.24c16.65,3.85,28,14.11,31,30.85A467.58,467.58,0,0,1,334,101.74,440.63,440.63,0,0,1,330.3,187c-3.91,28.25-16.87,40.43-45.63,42.88-59.86,5.11-119.83,5.12-179.8,2.55a507.2,507.2,0,0,1-51.21-4.56c-18-2.63-29.44-13.87-33.06-31.66-6.34-31.2-7-62.89-5.47-94.55a443.17,443.17,0,0,1,5.37-52.6c3.4-20,17-32.44,37.22-33.82,34.88-2.39,69.84-3.52,104.77-5.16,1.82-.09,5.49,0,5.49,0ZM143,74.26v95.56L225.9,122Z" transform="translate(-14.43 -10.05)"/></svg>